<svg xmlns="http://www.w3.org/2000/svg"  viewBox="0 0 40 40" width="40px" height="40px"><path fill="#f5c276" d="M8.721,24.961c-1.198-0.193-5.925-1.294-7.651-7.426C2.373,18.813,5.034,21,8,21h0.026	C8.01,20.676,8,20.344,8,20c-3.681,0-7-4-7-4H0c0,10.877,9.333,13.333,9.333,13.333l3.317,0.921	C11.09,29.223,9.578,27.577,8.721,24.961z"/><path fill="#c2e8ff" d="M38.452,16.5c-0.35-1.734-2.564-2.212-4.897-2.716C30.248,13.071,26.5,12.262,26.5,8 c0-0.022-0.007-1.267,0.957-2.244c0.821-0.833,2.106-1.256,3.82-1.256c1.427,0,2.519,0.375,3.245,1.115 C35.514,6.626,35.5,7.978,35.5,7.99c0,0.025-0.004,1.255-0.724,1.976c-0.357,0.359-0.83,0.534-1.443,0.534 c-0.621,0-1.072-0.17-1.379-0.52c-0.612-0.699-0.46-1.901-0.459-1.913l0.073-0.549c0,0-0.566-0.019-0.573-0.019 c-0.281,0-0.798,0.019-1.288,0.163C28.657,7.973,28.5,8.634,28.5,9c0,2.339,2.495,3.141,4.907,3.917 c2.432,0.782,4.738,1.524,5.056,3.583H38.452z"/><path fill="#8bb7f0" d="M31.278,5c1.277,0,2.244,0.319,2.872,0.95C34.993,6.794,35,7.977,35,8.009 c0,0.01-0.016,1.037-0.575,1.601C34.166,9.873,33.809,10,33.333,10c-0.695,0-0.925-0.261-1.001-0.347 c-0.381-0.432-0.374-1.264-0.342-1.515l0.149-1.1L31.03,7l-0.086-0.001C29.128,6.999,28,7.766,28,9 c0,2.012,1.546,3.023,3.352,3.736C28.659,11.963,27,10.844,27,7.986c0-0.043,0.006-1.069,0.824-1.89 C28.549,5.369,29.711,5,31.278,5 M31.278,4C25.902,4,26,8,26,8c0,8.028,12,4.833,12,9h1c0-5.306-10-3.806-10-8 c0-0.953,1.618-1.001,1.943-1.001C30.98,7.999,31,8,31,8s-0.417,3,2.333,3C36.028,11,36,8,36,8S36.075,4,31.278,4L31.278,4z"/><path fill="#ffeea3" d="M17 12.5A1.5 1.5 0 1 0 17 15.5A1.5 1.5 0 1 0 17 12.5Z"/><path fill="#f5c276" d="M17,13c0.551,0,1,0.449,1,1s-0.449,1-1,1s-1-0.449-1-1S16.449,13,17,13 M17,12 c-1.105,0-2,0.895-2,2s0.895,2,2,2s2-0.895,2-2S18.105,12,17,12L17,12z"/><path fill="#ffeea3" d="M10.621,20.833C11.673,19.411,14.174,16.5,17,16.5c2.832,0,5.33,2.912,6.38,4.333H10.621z"/><path fill="#f5c276" d="M17,17c2.166,0,4.163,1.909,5.353,3.333H11.641C12.922,18.813,14.941,17,17,17 M17,16 c-4.05,0-7.333,5.333-7.333,5.333h14.667C24.333,21.333,21.05,16,17,16L17,16z"/><g><path fill="#ffeea3" d="M11.804,35.5c0.51-0.507,1.653-1.163,3.352-1.482l0.316-0.06l0.076-0.313 C15.713,32.971,16.31,32.5,17,32.5s1.287,0.471,1.452,1.145l0.076,0.313l0.316,0.06c1.698,0.319,2.842,0.976,3.352,1.482H11.804z"/><path fill="#f5c276" d="M17,33c0.459,0,0.856,0.314,0.966,0.764l0.153,0.627l0.634,0.119c0.664,0.125,1.228,0.3,1.69,0.49 h-6.885c0.462-0.19,1.025-0.366,1.69-0.49l0.634-0.119l0.153-0.627C16.144,33.314,16.541,33,17,33 M17,32 c-0.941,0-1.724,0.652-1.938,1.527C12.705,33.97,11,35.123,11,36h12c0-0.877-1.705-2.03-4.062-2.473 C18.724,32.652,17.941,32,17,32L17,32z"/></g><g><path fill="#ffeea3" d="M16.998,31.5c-0.453-0.005-9.229-0.251-9.492-11H23c0.425-0.009,10.028-0.252,13.193-3h2.85 C29.369,31.092,17.277,31.494,16.998,31.5z"/><path fill="#f5c276" d="M38.06,18c-9.471,12.676-20.952,12.998-21.051,13c-0.356-0.004-8.465-0.215-8.983-10l14.996,0 c1.04-0.023,9.983-0.298,13.352-3H38.06 M40,17h-4c-2.889,2.778-13,3-13,3H7c0,11.944,10,12,10,12S29.899,31.862,40,17L40,17z"/></g></svg>